<?xml version="1.0" standalone="no"?><svg xmlns="http://www.w3.org/2000/svg" viewBox="0 0 1440 320"><path fill="#091336" fill-opacity="1" d="M0,128L24,154.7C48,181,96,235,144,234.7C192,235,240,181,288,149.3C336,117,384,107,432,138.7C480,171,528,245,576,272C624,299,672,277,720,250.7C768,224,816,192,864,186.7C912,181,960,203,1008,181.3C1056,160,1104,96,1152,58.7C1200,21,1248,11,1296,21.3C1344,32,1392,64,1416,80L1440,96L1440,320L1416,320C1392,320,1344,320,1296,320C1248,320,1200,320,1152,320C1104,320,1056,320,1008,320C960,320,912,320,864,320C816,320,768,320,720,320C672,320,624,320,576,320C528,320,480,320,432,320C384,320,336,320,288,320C240,320,192,320,144,320C96,320,48,320,24,320L0,320Z"></path></svg>